<?xml version="1.0" encoding="utf-8"?>
<!DOCTYPE svg PUBLIC "-//W3C//DTD SVG 1.1//EN" "http://www.w3.org/Graphics/SVG/1.1/DTD/svg11.dtd">
<svg version="1.1" xmlns="http://www.w3.org/2000/svg" xmlns:xlink="http://www.w3.org/1999/xlink" x="0px" y="0px"
  viewBox="-150 -150 2000 2000" enable-background="new -150 -150 2000 2000" xml:space="preserve">
  <metadata> Svg Vector Icons : http://www.onlinewebfonts.com/icon </metadata>
  <g fill="cyan">
    <circle cx="500" cy="500" r="650" />
  </g>

  <!-- Svg Vector Icons : http://www.onlinewebfonts.com/icon -->
  <g fill="whitesmoke">
    <path
      d="M289.8,66h413.1l0.1,144.7c0.1,0.1,54.8,59.3,54.8,59.3V49.8c0-22-17.2-39.8-39.2-39.8H273.6c-21.9,0-39.8,17.9-39.8,39.8v65.3h55.9L289.8,66L289.8,66z" />
    <path
      d="M294.9,223.6h259l-0.4,101.8c-0.1,11.2,4.4,21.8,12.3,29.8c7.9,7.9,18.5,12.4,29.7,12.4H700v247.7H761V374.8c0-27-10.9-52.9-30-72L621.1,192.6c-19.2-19.2-45.2-30-72.3-30H277.1c-23.9,0-43.3,19.5-43.3,43.4v409.2h61L294.9,223.6L294.9,223.6z M613.6,269.2l38.9,38.5l-38.9-0.1V269.2z" />
    <path
      d="M365.8,350.8h83c16.5,0,29.9-14,29.9-30.6c0-16.6-13.4-30.5-29.9-30.5h-83c-16.5,0-29.9,13.9-29.9,30.5C335.9,336.8,349.3,350.8,365.8,350.8z" />
    <path
      d="M630.5,405H365.9c-16.5,0-29.9,13.2-29.9,29.6c0,16.6,13.4,29.7,29.9,29.7h264.7c16.5,0,29.9-13.1,29.9-29.7C660.4,418.2,647,405,630.5,405z" />
    <path
      d="M630.5,518.6H365.9c-16.5,0-29.9,14-29.9,30.4c0,16.5,13.4,30.5,29.9,30.5h264.7c16.5,0,29.9-14,29.9-30.5C660.4,532.6,647,518.6,630.5,518.6z" />
    <path
      d="M800,470.8v116.1l19.4,31.7c4.2,6.9,4.4,15.5,0.5,22.5c-3.9,7.1-11.4,11.4-19.4,11.4h-602c-8.1,0-15.5-4.4-19.4-11.3c-3.9-7.1-3.8-15.7,0.4-22.6l15.4-25.2V477.3l-89.8,145.3c-12.2,19.8-18.7,42.6-18.7,65.9v222.2c0,43.7,35.5,79.2,79.2,79.2h668.8c43.7,0,79.2-35.5,79.2-79.2V688.5c0-23.5-6.6-46.5-19.1-66.5L800,470.8z" />
  </g>
</svg>
